<svg version="1.1" id="Layer_1" xmlns="http://www.w3.org/2000/svg" xmlns:xlink="http://www.w3.org/1999/xlink" x="0px" y="0px"
	 viewBox="0 0 520 194" style="enable-background:new 0 0 520 194;" xml:space="preserve" width="280">
<style type="text/css">
	.st0{fill-rule:evenodd;clip-rule:evenodd;fill:#F7B03B;}
	.st1{fill-rule:evenodd;clip-rule:evenodd;fill:#03152C;}
</style>
<desc>Created with Sketch.</desc>
<path id="Fill-2" class="st0" d="M519.3,130.6c0,5.8-4.7,10.4-10.4,10.4c-5.8,0-10.4-4.7-10.4-10.4s4.7-10.4,10.4-10.4
	C514.6,120.1,519.3,124.8,519.3,130.6"/>
<path id="Fill-4" class="st1" d="M0.6,88.3c0-29.3,23.6-53,52.7-53c19,0,36.5,10.1,46,26.4c3,5.1,1.1,11.4-3.8,14.3
	c-5.1,2.7-11.4,1.1-14.3-3.8c-5.7-9.9-16.2-16-27.8-16c-17.5,0-32.1,14.3-32.1,32.1c0,17.5,14.6,32.1,32.1,32.1
	c11,0,21.1-5.5,27-14.8c3.2-4.9,9.7-6.1,14.6-3.2c4.9,3.2,6.1,9.7,3,14.6c-9.7,15.2-26.4,24.3-44.5,24.3
	C24.2,141.2,0.6,117.4,0.6,88.3"/>
<path id="Fill-6" class="st1" d="M110.3,88.1c0-29.3,23.8-53,53-53c29.3,0,53,23.6,53,53c0,29.1-23.6,53-53,53
	C134.1,141,110.3,117.2,110.3,88.1 M131.2,88.1c0,17.5,14.3,32.1,32.1,32.1s32.1-14.6,32.1-32.1c0-17.7-14.3-32.1-32.1-32.1
	S131.2,70.4,131.2,88.1"/>
<path id="Fill-8" class="st1" d="M249.7,131.1v52.5c0,5.7-4.6,10.3-10.3,10.3c-5.9,0-10.5-4.6-10.5-10.3V89.1v-0.2
	c0-29.1,23.8-53,53-53c29.3,0,53,23.8,53,53c0,29.3-23.6,53-53,53C269.8,141.9,258.6,137.9,249.7,131.1 M249.7,88.9v0.2
	c0,17.5,14.3,31.9,32.1,31.9c17.7,0,32.1-14.3,32.1-32.1c0-17.5-14.3-32.1-32.1-32.1C264.1,56.9,249.7,71.2,249.7,88.9"/>
<path id="Fill-10" class="st1" d="M346.5,130.7v-85c0-5.7,4.6-10.3,10.5-10.3c5.7,0,10.3,4.6,10.3,10.3v85c0,5.9-4.6,10.5-10.3,10.5
	C351.2,141.2,346.5,136.6,346.5,130.7"/>
<path id="Fill-12" class="st1" d="M485.6,88.9v41.3c0,6.1-4.4,10.5-10.5,10.5c-4.2,0-10.1-4.4-10.1-10.5
	c-9.1,7.6-19.2,10.5-31.2,10.5c-29.7,0-53.4-22.2-53.4-51.9c0-29.7,23.6-53.4,53.4-53.4C463.4,35.5,485.6,59.2,485.6,88.9
	 M464.9,88.9c0-17.7-13.5-32.7-31.2-32.7c-17.7,0-32.7,15-32.7,32.7s15,31.2,32.7,31.2C451.4,120.1,464.9,106.6,464.9,88.9"/>
<path id="Fill-14" class="st0" d="M367.4,11.2c0,5.8-4.7,10.4-10.4,10.4c-5.8,0-10.4-4.7-10.4-10.4S351.2,0.8,357,0.8
	C362.8,0.8,367.4,5.4,367.4,11.2"/>
</svg>

