<svg xmlns="http://www.w3.org/2000/svg" viewBox="0 0 280 77" width="280" height="77" preserveAspectRatio="xMidYMid meet" style="width: 100%; 
height: 100%; transform: translate3d(0px, 0px, 0px);"><g clip-path="url(#animationMask_4m0cCpqQMO)"><g 
transform="matrix(0.361270010471344,0,0,0.361270010471344,0.1111602783203125,-0.25289154052734375)" opacity="1" style="display: block;"><g 
opacity="1" transform="matrix(1,0,0,1,45.680999755859375,106.23699951171875)"><path fill="rgb(130,193,208)" fill-opacity="1" d=" 
M-45.68000030517578,53.6150016784668 C-45.68000030517578,53.6150016784668 45.68000030517578,0.8679999709129333 
45.68000030517578,0.8679999709129333 C45.68000030517578,0.8679999709129333 -45.68000030517578,-53.6150016784668 
-45.68000030517578,-53.6150016784668 C-45.68000030517578,-53.6150016784668 -45.68000030517578,53.6150016784668 
-45.68000030517578,53.6150016784668z"></path></g><g opacity="1" transform="matrix(1,0,0,1,69.21800231933594,160.12100219726562)"><path 
fill="rgb(64,155,172)" fill-opacity="1" d=" M-69.21800231933594,-0.2680000066757202 C-69.21800231933594,-0.2680000066757202 
22.14299964904785,53.01599884033203 22.14299964904785,53.01599884033203 C22.14299964904785,53.01599884033203 
69.21800231933594,-25.808000564575195 69.21800231933594,-25.808000564575195 C69.21800231933594,-25.808000564575195 
22.14299964904785,-53.01599884033203 22.14299964904785,-53.01599884033203 C22.14299964904785,-53.01599884033203 
-69.21800231933594,-0.2680000066757202 -69.21800231933594,-0.2680000066757202z"></path></g><g opacity="1" 
transform="matrix(1,0,0,1,69.21800231933594,53.551998138427734)"><path fill="rgb(176,219,228)" fill-opacity="1" d=" 
M21.461999893188477,-53.553001403808594 C21.461999893188477,-53.553001403808594 -69.21800231933594,-0.9300000071525574 
-69.21800231933594,-0.9300000071525574 C-69.21800231933594,-0.9300000071525574 22.142000198364258,53.553001403808594 
22.142000198364258,53.553001403808594 C22.142000198364258,53.553001403808594 69.21800231933594,26.371999740600586 
69.21800231933594,26.371999740600586 C69.21800231933594,26.371999740600586 21.461999893188477,-53.553001403808594 
21.461999893188477,-53.553001403808594z"></path></g><g opacity="1" transform="matrix(1,0,0,1,137.2740020751953,173.7239990234375)"><path 
fill="rgb(13,86,93)" fill-opacity="1" d=" M-46.03900146484375,39.4119987487793 C-46.03900146484375,39.4119987487793 
46.03799819946289,-14.531999588012695 46.03799819946289,-14.531999588012695 C46.03799819946289,-14.531999588012695 
1.0360000133514404,-39.4119987487793 1.0360000133514404,-39.4119987487793 C1.0360000133514404,-39.4119987487793 
-46.03900146484375,39.4119987487793 -46.03900146484375,39.4119987487793z"></path></g><g opacity="1" 
transform="matrix(1,0,0,1,122.49400329589844,107.11900329589844)"><path fill="rgb(130,193,208)" fill-opacity="1" d=" 
M-31.132999420166016,-0.014999999664723873 C-31.132999420166016,-0.014999999664723873 15.942000389099121,-27.19300079345703 
15.942000389099121,-27.19300079345703 C15.942000389099121,-27.19300079345703 31.132999420166016,-0.8820000290870667 
31.132999420166016,-0.8820000290870667 C31.132999420166016,-0.8820000290870667 15.942000389099121,27.19300079345703 
15.942000389099121,27.19300079345703 C15.942000389099121,27.19300079345703 -31.132999420166016,-0.014999999664723873 
-31.132999420166016,-0.014999999664723873z"></path></g><g opacity="1" transform="matrix(1,0,0,1,137.0590057373047,39.9630012512207)"><path 
fill="rgb(130,193,208)" fill-opacity="1" d=" M1.3769999742507935,39.9630012512207 C1.3769999742507935,39.9630012512207 
46.37900161743164,13.982000350952148 46.37900161743164,13.982000350952148 C46.37900161743164,13.982000350952148 
-46.37900161743164,-39.9630012512207 -46.37900161743164,-39.9630012512207 C-46.37900161743164,-39.9630012512207 
1.3769999742507935,39.9630012512207 1.3769999742507935,39.9630012512207z"></path></g><g opacity="1" 
transform="matrix(1,0,0,1,160.93699645996094,132.71499633789062)"><path fill="rgb(19,49,58)" fill-opacity="1" d=" 
M-22.500999450683594,1.597000002861023 C-22.500999450683594,1.597000002861023 22.500999450683594,26.476999282836914 
22.500999450683594,26.476999282836914 C22.500999450683594,26.476999282836914 -7.309999942779541,-26.47800064086914 
-7.309999942779541,-26.47800064086914 C-7.309999942779541,-26.47800064086914 -22.500999450683594,1.597000002861023 
-22.500999450683594,1.597000002861023z"></path></g><g opacity="1" transform="matrix(1,0,0,1,160.93699645996094,80.09100341796875)"><path 
fill="rgb(206,232,237)" fill-opacity="1" d=" M-22.500999450683594,-0.16599999368190765 C-22.500999450683594,-0.16599999368190765 
-7.309999942779541,26.145999908447266 -7.309999942779541,26.145999908447266 C-7.309999942779541,26.145999908447266 
22.500999450683594,-26.145999908447266 22.500999450683594,-26.145999908447266 C22.500999450683594,-26.145999908447266 
-22.500999450683594,-0.16599999368190765 -22.500999450683594,-0.16599999368190765z"></path></g><g opacity="1" 
transform="matrix(1,0,0,1,168.5330047607422,106.56800079345703)"><path fill="rgb(64,155,172)" fill-opacity="1" d=" 
M-14.906000137329102,-0.33000001311302185 C-14.906000137329102,-0.33000001311302185 14.904999732971191,52.624000549316406 
14.904999732971191,52.624000549316406 C14.904999732971191,52.624000549316406 14.904999732971191,-52.624000549316406 
14.904999732971191,-52.624000549316406 C14.904999732971191,-52.624000549316406 -14.906000137329102,-0.33000001311302185 
-14.906000137329102,-0.33000001311302185z"></path></g></g><g 
transform="matrix(0.4644100069999695,0,0,0.4644100069999695,81.9246597290039,-9.813873291015625)" opacity="1" style="display: block;"><g 
opacity="1" transform="matrix(1,0,0,1,422.2690124511719,120.95899963378906)"><path fill="rgb(19,49,58)" fill-opacity="1" d=" 
M3.6619999408721924,0 C3.6619999408721924,2.0220000743865967 2.0220000743865967,3.6619999408721924 0,3.6619999408721924 
C-2.0230000019073486,3.6619999408721924 -3.6619999408721924,2.0220000743865967 -3.6619999408721924,0 C-3.6619999408721924,-2.0220000743865967 
-2.0230000019073486,-3.6619999408721924 0,-3.6619999408721924 C2.0220000743865967,-3.6619999408721924 3.6619999408721924,-2.0220000743865967 
3.6619999408721924,0z"></path></g><g opacity="1" transform="matrix(1,0,0,1,399.76300048828125,106.70500183105469)"><path fill="rgb(19,49,58)" 
fill-opacity="1" d=" M0.0010000000474974513,-17.687999725341797 C10.022000312805176,-17.687999725341797 
18.117000579833984,-10.279000282287598 18.117000579833984,-0.06599999964237213 C18.117000579833984,10.211000442504883 
10.022000312805176,17.687999725341797 0.0010000000474974513,17.687999725341797 C-10.020000457763672,17.687999725341797 
-18.117000579833984,10.211000442504883 -18.117000579833984,-0.06599999964237213 C-18.117000579833984,-10.279000282287598 
-10.020000457763672,-17.687999725341797 0.0010000000474974513,-17.687999725341797z M0.0010000000474974513,12.081000328063965 
C6.372000217437744,12.081000328063965 11.54800033569336,7.008999824523926 11.54800033569336,-0.06599999964237213 
C11.54800033569336,-7.073999881744385 6.372000217437744,-12.079000473022461 0.0010000000474974513,-12.079000473022461 
C-6.303999900817871,-12.079000473022461 -11.54699993133545,-7.073999881744385 -11.54699993133545,-0.06599999964237213 
C-11.54699993133545,7.008999824523926 -6.303999900817871,12.081000328063965 0.0010000000474974513,12.081000328063965z"></path></g><g 
opacity="1" transform="matrix(1,0,0,1,362.43798828125,106.70500183105469)"><path fill="rgb(19,49,58)" fill-opacity="1" d=" 
M2.2899999618530273,-17.687999725341797 C10.718999862670898,-17.687999725341797 14.89799976348877,-12.746999740600586 
14.89799976348877,-12.746999740600586 C14.89799976348877,-12.746999740600586 11.845999717712402,-8.208000183105469 
11.845999717712402,-8.208000183105469 C11.845999717712402,-8.208000183105469 8.262999534606934,-12.079000473022461 
2.555999994277954,-12.079000473022461 C-4.215000152587891,-12.079000473022461 -9.125,-7.007999897003174 -9.125,-0.06599999964237213 
C-9.125,6.808000087738037 -4.215000152587891,12.081000328063965 2.755000114440918,12.081000328063965 C8.993000030517578,12.081000328063965 
13.107000350952148,7.541999816894531 13.107000350952148,7.541999816894531 C13.107000350952148,7.541999816894531 
15.694999694824219,12.281999588012695 15.694999694824219,12.281999588012695 C15.694999694824219,12.281999588012695 
11.050999641418457,17.687999725341797 2.2899999618530273,17.687999725341797 C-8.262999534606934,17.687999725341797 
-15.694999694824219,10.145000457763672 -15.694999694824219,-0.0010000000474974513 C-15.694999694824219,-10.01200008392334 
-8.262999534606934,-17.687999725341797 2.2899999618530273,-17.687999725341797z"></path></g><g opacity="1" 
transform="matrix(1,0,0,1,324.25,123.61000061035156)"><path fill="rgb(19,49,58)" fill-opacity="1" d=" M11.385000228881836,-0.7160000205039978 
C11.385000228881836,-0.7160000205039978 -11.383999824523926,-0.7160000205039978 -11.383999824523926,-0.7160000205039978 
C-11.383999824523926,-0.7160000205039978 -11.383999824523926,0.7160000205039978 -11.383999824523926,0.7160000205039978 
C-11.383999824523926,0.7160000205039978 11.385000228881836,0.7160000205039978 11.385000228881836,0.7160000205039978 
C11.385000228881836,0.7160000205039978 11.385000228881836,-0.7160000205039978 11.385000228881836,-0.7160000205039978z"></path></g><g 
opacity="1" transform="matrix(1,0,0,1,324.5780029296875,103.74099731445312)"><path fill="rgb(19,49,58)" fill-opacity="1" d=" 
M-5.574999809265137,-1.0709999799728394 C-5.574999809265137,-1.0709999799728394 -6.197000026702881,-1.7200000286102295 
-6.197000026702881,-1.7200000286102295 C-7.979000091552734,-3.621000051498413 -9.845000267028809,-5.64300012588501 
-9.76200008392334,-8.312999725341797 C-9.76200008392334,-11.104000091552734 -7.605999946594238,-14.585000038146973 
-2.6740000247955322,-14.585000038146973 C1.7610000371932983,-14.585000038146973 4.040999889373779,-11.631999969482422 
4.040999889373779,-8.47599983215332 C4.040999889373779,-5.118000030517578 0.47699999809265137,-2.447000026702881 
-2.7990000247955322,-0.7889999747276306 C-2.7990000247955322,-0.7889999747276306 5.6570000648498535,7.383999824523926 
5.6570000648498535,7.383999824523926 C7.234000205993652,4.914999961853027 8.145000457763672,1.9620000123977661 
8.145000457763672,-0.8700000047683716 C8.145000457763672,-1.0709999799728394 8.102999687194824,-1.4769999980926514 
8.102999687194824,-1.6779999732971191 C8.102999687194824,-1.8819999694824219 8.185999870300293,-2.0439999103546143 
8.4350004196167,-2.0439999103546143 C8.4350004196167,-2.0439999103546143 9.305999755859375,-2.0439999103546143 
9.305999755859375,-2.0439999103546143 C9.595999717712402,-2.0439999103546143 9.718999862670898,-1.9210000038146973 
9.803000450134277,-1.6779999732971191 C9.88599967956543,-1.3949999809265137 9.88599967956543,-1.0709999799728394 
9.88599967956543,-0.8700000047683716 C9.88599967956543,2.3259999752044678 8.767000198364258,5.764999866485596 
6.9019999504089355,8.555999755859375 C6.9019999504089355,8.555999755859375 11.211999893188477,12.725000381469727 
11.211999893188477,12.725000381469727 C11.543000221252441,13.006999969482422 11.708999633789062,13.371000289916992 
11.378000259399414,13.652999877929688 C11.378000259399414,13.652999877929688 10.71399974822998,14.260000228881836 
10.71399974822998,14.260000228881836 C10.383000373840332,14.585000038146973 10.093000411987305,14.383000373840332 
9.88599967956543,14.178999900817871 C9.88599967956543,14.178999900817871 5.739999771118164,10.093999862670898 
5.739999771118164,10.093999862670898 C3.378000020980835,12.805999755859375 0.10300000011920929,14.545000076293945 
-3.8350000381469727,14.545000076293945 C-8.807999610900879,14.545000076293945 -11.710000038146973,11.105999946594238 
-11.710000038146973,7.140999794006348 C-11.710000038146973,2.8940000534057617 -8.517999649047852,0.4659999907016754 
-5.574999809265137,-1.0709999799728394z M-3.7929999828338623,12.925999641418457 C-0.35199999809265137,12.925999641418457 
2.506999969482422,11.348999977111816 4.579999923706055,8.92199993133545 C4.579999923706055,8.92199993133545 
-4.414999961853027,0.019999999552965164 -4.414999961853027,0.019999999552965164 C-7.107999801635742,1.437000036239624 
-9.88599967956543,3.621000051498413 -9.88599967956543,7.140999794006348 C-9.88599967956543,10.37600040435791 
-7.35699987411499,12.925999641418457 -3.7929999828338623,12.925999641418457z M2.2170000076293945,-8.435999870300293 
C2.2170000076293945,-10.701000213623047 0.5600000023841858,-13.008000373840332 -2.7990000247955322,-13.008000373840332 
C-6.361999988555908,-13.008000373840332 -8.020000457763672,-10.538999557495117 -8.020000457763672,-8.27400016784668 
C-8.062000274658203,-6.373000144958496 -6.693999767303467,-4.632999897003174 -5.203000068664551,-3.134999990463257 
C-4.788000106811523,-2.7709999084472656 -4.414999961853027,-2.365999937057495 -4,-1.9630000591278076 C-0.9739999771118164,-3.4590001106262207 
2.2170000076293945,-5.5229997634887695 2.2170000076293945,-8.435999870300293z"></path></g><g opacity="1" 
transform="matrix(1,0,0,1,283.4159851074219,106.6969985961914)"><path fill="rgb(19,49,58)" fill-opacity="1" d=" 
M9.282999992370605,-17.658000946044922 C9.282999992370605,-17.658000946044922 15.38700008392334,-17.658000946044922 
15.38700008392334,-17.658000946044922 C15.38700008392334,-17.658000946044922 15.38700008392334,17.658000946044922 
15.38700008392334,17.658000946044922 C15.38700008392334,17.658000946044922 10.1899995803833,17.658000946044922 
10.1899995803833,17.658000946044922 C10.1899995803833,17.658000946044922 -9.284000396728516,-7.4679999351501465 
-9.284000396728516,-7.4679999351501465 C-9.284000396728516,-7.4679999351501465 -9.284000396728516,17.658000946044922 
-9.284000396728516,17.658000946044922 C-9.284000396728516,17.658000946044922 -15.387999534606934,17.658000946044922 
-15.387999534606934,17.658000946044922 C-15.387999534606934,17.658000946044922 -15.387999534606934,-17.658000946044922 
-15.387999534606934,-17.658000946044922 C-15.387999534606934,-17.658000946044922 -9.63700008392334,-17.658000946044922 
-9.63700008392334,-17.658000946044922 C-9.63700008392334,-17.658000946044922 9.282999992370605,6.760000228881836 
9.282999992370605,6.760000228881836 C9.282999992370605,6.760000228881836 9.282999992370605,-17.658000946044922 
9.282999992370605,-17.658000946044922z"></path></g><g opacity="1" transform="matrix(1,0,0,1,238.51699829101562,106.57099914550781)"><path 
fill="rgb(19,49,58)" fill-opacity="1" d=" M18.413999557495117,17.784000396728516 C18.413999557495117,17.784000396728516 
11.854999542236328,17.784000396728516 11.854999542236328,17.784000396728516 C11.854999542236328,17.784000396728516 
8.27400016784668,9.258000373840332 8.27400016784668,9.258000373840332 C8.27400016784668,9.258000373840332 
-8.425000190734863,9.258000373840332 -8.425000190734863,9.258000373840332 C-8.425000190734863,9.258000373840332 
-12.057000160217285,17.784000396728516 -12.057000160217285,17.784000396728516 C-12.057000160217285,17.784000396728516 
-18.413999557495117,17.784000396728516 -18.413999557495117,17.784000396728516 C-18.413999557495117,17.784000396728516 
-2.875,-17.784000396728516 -2.875,-17.784000396728516 C-2.875,-17.784000396728516 2.875999927520752,-17.784000396728516 
2.875999927520752,-17.784000396728516 C2.875999927520752,-17.784000396728516 18.413999557495117,17.784000396728516 
18.413999557495117,17.784000396728516z M-0.10000000149011612,-10.366999626159668 C-0.10000000149011612,-10.366999626159668 
-6.15500020980835,3.757999897003174 -6.15500020980835,3.757999897003174 C-6.15500020980835,3.757999897003174 
6.004000186920166,3.757999897003174 6.004000186920166,3.757999897003174 C6.004000186920166,3.757999897003174 
-0.10000000149011612,-10.366999626159668 -0.10000000149011612,-10.366999626159668z"></path></g><g opacity="1" 
transform="matrix(1,0,0,1,191.65199279785156,106.697998046875)"><path fill="rgb(19,49,58)" fill-opacity="1" d=" 
M-0.0010000000474974513,8.980999946594238 C-0.0010000000474974513,8.980999946594238 -0.20200000703334808,8.980999946594238 
-0.20200000703334808,8.980999946594238 C-0.20200000703334808,8.980999946594238 -11.25100040435791,-7.567999839782715 
-11.25100040435791,-7.567999839782715 C-11.25100040435791,-7.567999839782715 -11.25100040435791,17.658000946044922 
-11.25100040435791,17.658000946044922 C-11.25100040435791,17.658000946044922 -17.354999542236328,17.658000946044922 
-17.354999542236328,17.658000946044922 C-17.354999542236328,17.658000946044922 -17.354999542236328,-17.658000946044922 
-17.354999542236328,-17.658000946044922 C-17.354999542236328,-17.658000946044922 -10.746000289916992,-17.658000946044922 
-10.746000289916992,-17.658000946044922 C-10.746000289916992,-17.658000946044922 -0.0010000000474974513,-0.9589999914169312 
-0.0010000000474974513,-0.9589999914169312 C-0.0010000000474974513,-0.9589999914169312 10.744999885559082,-17.658000946044922 
10.744999885559082,-17.658000946044922 C10.744999885559082,-17.658000946044922 17.354999542236328,-17.658000946044922 
17.354999542236328,-17.658000946044922 C17.354999542236328,-17.658000946044922 17.354999542236328,17.658000946044922 
17.354999542236328,17.658000946044922 C17.354999542236328,17.658000946044922 11.14900016784668,17.658000946044922 
11.14900016784668,17.658000946044922 C11.14900016784668,17.658000946044922 11.14900016784668,-7.669000148773193 
11.14900016784668,-7.669000148773193 C11.14900016784668,-7.669000148773193 -0.0010000000474974513,8.980999946594238 
-0.0010000000474974513,8.980999946594238z"></path></g><g opacity="1" transform="matrix(1,0,0,1,145.7689971923828,106.6969985961914)"><path 
fill="rgb(19,49,58)" fill-opacity="1" d=" M-2.799999952316284,17.658000946044922 C-2.799999952316284,17.658000946044922 
-15.967000007629395,17.658000946044922 -15.967000007629395,17.658000946044922 C-15.967000007629395,17.658000946044922 
-15.967000007629395,-17.658000946044922 -15.967000007629395,-17.658000946044922 C-15.967000007629395,-17.658000946044922 
-2.799999952316284,-17.658000946044922 -2.799999952316284,-17.658000946044922 C8.298999786376953,-17.658000946044922 
15.967000007629395,-10.038999557495117 15.967000007629395,-0.05000000074505806 C15.967000007629395,9.939000129699707 
8.298999786376953,17.658000946044922 -2.799999952316284,17.658000946044922z M-2.799999952316284,-12.005999565124512 
C-2.799999952316284,-12.005999565124512 -9.762999534606934,-12.005999565124512 -9.762999534606934,-12.005999565124512 
C-9.762999534606934,-12.005999565124512 -9.762999534606934,12.006999969482422 -9.762999534606934,12.006999969482422 
C-9.762999534606934,12.006999969482422 -2.799999952316284,12.006999969482422 -2.799999952316284,12.006999969482422 
C4.616000175476074,12.006999969482422 9.458999633789062,7.01200008392334 9.458999633789062,0.050999999046325684 
C9.458999633789062,-6.910999774932861 4.616000175476074,-12.005999565124512 -2.799999952316284,-12.005999565124512z"></path></g><g 
opacity="1" transform="matrix(1,0,0,1,103.26699829101562,106.6969985961914)"><path fill="rgb(19,49,58)" fill-opacity="1" d=" 
M7.669000148773193,17.658000946044922 C7.669000148773193,17.658000946044922 -1.0099999904632568,5.3480000495910645 
-1.0099999904632568,5.3480000495910645 C-1.0099999904632568,5.3480000495910645 -8.779000282287598,5.3480000495910645 
-8.779000282287598,5.3480000495910645 C-8.779000282287598,5.3480000495910645 -8.779000282287598,17.658000946044922 
-8.779000282287598,17.658000946044922 C-8.779000282287598,17.658000946044922 -14.984000205993652,17.658000946044922 
-14.984000205993652,17.658000946044922 C-14.984000205993652,17.658000946044922 -14.984000205993652,-17.658000946044922 
-14.984000205993652,-17.658000946044922 C-14.984000205993652,-17.658000946044922 0.7570000290870667,-17.658000946044922 
0.7570000290870667,-17.658000946044922 C8.878999710083008,-17.658000946044922 13.87399959564209,-13.369000434875488 
13.87399959564209,-6.458000183105469 C13.87399959564209,-0.6050000190734863 10.392999649047852,2.927000045776367 
5.448999881744385,4.289000034332275 C5.448999881744385,4.289000034332275 14.984000205993652,17.658000946044922 
14.984000205993652,17.658000946044922 C14.984000205993652,17.658000946044922 7.669000148773193,17.658000946044922 
7.669000148773193,17.658000946044922z M0.25200000405311584,-12.005999565124512 C0.25200000405311584,-12.005999565124512 
-8.779000282287598,-12.005999565124512 -8.779000282287598,-12.005999565124512 C-8.779000282287598,-12.005999565124512 
-8.779000282287598,-0.1509999930858612 -8.779000282287598,-0.1509999930858612 C-8.779000282287598,-0.1509999930858612 
0.30300000309944153,-0.1509999930858612 0.30300000309944153,-0.1509999930858612 C4.743000030517578,-0.1509999930858612 
7.567999839782715,-2.4709999561309814 7.567999839782715,-6.105000019073486 C7.567999839782715,-9.98900032043457 
4.8429999351501465,-12.005999565124512 0.25200000405311584,-12.005999565124512z"></path></g><g opacity="1" 
transform="matrix(1,0,0,1,58.77199935913086,106.57099914550781)"><path fill="rgb(19,49,58)" fill-opacity="1" d=" 
M18.415000915527344,17.784000396728516 C18.415000915527344,17.784000396728516 11.854999542236328,17.784000396728516 
11.854999542236328,17.784000396728516 C11.854999542236328,17.784000396728516 8.274999618530273,9.258000373840332 
8.274999618530273,9.258000373840332 C8.274999618530273,9.258000373840332 -8.425999641418457,9.258000373840332 
-8.425999641418457,9.258000373840332 C-8.425999641418457,9.258000373840332 -12.057000160217285,17.784000396728516 
-12.057000160217285,17.784000396728516 C-12.057000160217285,17.784000396728516 -18.415000915527344,17.784000396728516 
-18.415000915527344,17.784000396728516 C-18.415000915527344,17.784000396728516 -2.875999927520752,-17.784000396728516 
-2.875999927520752,-17.784000396728516 C-2.875999927520752,-17.784000396728516 2.875999927520752,-17.784000396728516 
2.875999927520752,-17.784000396728516 C2.875999927520752,-17.784000396728516 18.415000915527344,17.784000396728516 
18.415000915527344,17.784000396728516z M-0.10000000149011612,-10.366999626159668 C-0.10000000149011612,-10.366999626159668 
-6.1539998054504395,3.757999897003174 -6.1539998054504395,3.757999897003174 C-6.1539998054504395,3.757999897003174 
6.004000186920166,3.757999897003174 6.004000186920166,3.757999897003174 C6.004000186920166,3.757999897003174 
-0.10000000149011612,-10.366999626159668 -0.10000000149011612,-10.366999626159668z"></path></g><g opacity="1" 
transform="matrix(1,0,0,1,14.630999565124512,106.697998046875)"><path fill="rgb(19,49,58)" fill-opacity="0.98" d=" 
M8.423999786376953,-17.658000946044922 C8.423999786376953,-17.658000946044922 8.423999786376953,-2.9769999980926514 
8.423999786376953,-2.9769999980926514 C8.423999786376953,-2.9769999980926514 -8.425999641418457,-2.9769999980926514 
-8.425999641418457,-2.9769999980926514 C-8.425999641418457,-2.9769999980926514 -8.425999641418457,-17.658000946044922 
-8.425999641418457,-17.658000946044922 C-8.425999641418457,-17.658000946044922 -14.630000114440918,-17.658000946044922 
-14.630000114440918,-17.658000946044922 C-14.630000114440918,-17.658000946044922 -14.630000114440918,17.658000946044922 
-14.630000114440918,17.658000946044922 C-14.630000114440918,17.658000946044922 -8.425999641418457,17.658000946044922 
-8.425999641418457,17.658000946044922 C-8.425999641418457,17.658000946044922 -8.425999641418457,2.7760000228881836 
-8.425999641418457,2.7760000228881836 C-8.425999641418457,2.7760000228881836 8.423999786376953,2.7760000228881836 
8.423999786376953,2.7760000228881836 C8.423999786376953,2.7760000228881836 8.423999786376953,17.658000946044922 
8.423999786376953,17.658000946044922 C8.423999786376953,17.658000946044922 14.630000114440918,17.658000946044922 
14.630000114440918,17.658000946044922 C14.630000114440918,17.658000946044922 14.630000114440918,-17.658000946044922 
14.630000114440918,-17.658000946044922 C14.630000114440918,-17.658000946044922 8.423999786376953,-17.658000946044922 
8.423999786376953,-17.658000946044922z"></path></g></g></g><defs><clipPath id="animationMask_4m0cCpqQMO"><rect width="280" height="77" x="0" 
y="0"></rect></clipPath></defs></svg>
